<?xml version="1.0" encoding="utf-8"?>
<!-- Generator: Adobe Illustrator 18.1.1, SVG Export Plug-In . SVG Version: 6.00 Build 0)  -->
<svg version="1.1" id="Layer_2" xmlns="http://www.w3.org/2000/svg" xmlns:xlink="http://www.w3.org/1999/xlink" x="0px" y="0px"
	 viewBox="0 0 501.4 296" enable-background="new 0 0 501.4 296" xml:space="preserve">
<g>
	<path fill="#00A79D" d="M236.3,283.5c2.9-2.6,6.4-4.9,8.5-8c12.7-18.9,25.3-37.8,37.4-57.1c3.9-6.2,5.8-13.8,9.7-20.1
		c5.4-8.8,12.6-15.8,23.4-17.9c1-0.2,2-0.4,3-0.4c0.6-0.1,1.3,0.1,2.2,0.1c1.5,3.4,1,6.5-1.3,9.1c-14.9,16.3-19.2,36-18.6,57.2
		c0.1,2.1,0.5,4.3,0.9,6.4c0.9,5.2,3.8,6.8,8.5,4c3.5-2.1,7.5-4.4,9.7-7.7c6.6-9.9,12.3-20.4,18.4-30.6c0.2-0.4,0.2-0.9,0.4-1.5
		c-11.5-9.4-15-21.8-12.8-36.1c0.3-2.1,1-4.2,1.6-6.2c1-3.4,3.1-6.4,6.8-6.5c3.6-0.1,5.5,2.9,7,6.2c3.9,8.5,5,17.4,3.9,26.6
		c-0.5,4.4-0.5,8.9-0.7,13.8c6,3.2,12.7,3.4,18.3-0.2c8.2-5.3,15.8-11.5,23.3-17.8c3.6-2.9,6.3-6.9,9.7-10.1
		c2.3-2.1,2.5-4.1,1.7-7.1c-3.3-11.8-0.9-22.4,8-31.1c2.1-2,4.8-3.6,7.6-4.6c4.5-1.6,7.4,0.7,7.9,5.4c0.9,8.3-0.6,16.3-3.5,23.9
		c-1.4,3.7-1.5,6.8,0.4,10.4c3.8,7.3,8,14.2,15.8,17.9c4.7,2.2,3.6,6.6,3,10.1c-1.2,6.5-3.1,12.8-4.9,19.2
		c-4,14.8-7.2,29.7-6.9,45.1c0,2.2,0.5,4.4,0.8,6.6c0.4,0.2,0.9,0.4,1.3,0.6c2.5-1.8,5.4-3.2,7.3-5.4c3.6-4.1,7-8.5,9.9-13.1
		c11.1-17,21.8-34.1,32.9-51.1c6-9.2,12.4-18,18.8-27c1.5-2.1,3-4.6,6-3.9c-8.9,12.8-18,25.6-26.7,38.6
		c-11.3,17-22.3,34.3-33.2,51.5c-4,6.2-9.5,10.7-15.7,14.2c-4.6,2.6-8.9,1.5-12.2-3c-4.6-6.2-5.5-13.5-5.7-20.8
		c-0.4-12.1,2.3-23.8,5.2-35.4c1.8-7.2,3.6-14.4,5.3-21c-6.5-6.7-12.6-13-19.6-20.2c-1.3,1.6-2.9,3.7-4.5,5.8
		c-6.5,8.2-14.6,14.5-22.8,20.7c-8.7,6.6-18.2,9.3-29.5,6.2c-2.2,4.2-4.3,8.4-6.5,12.6c-4.5,8.8-9.2,17.5-17.3,23.4
		c-3.9,2.8-8.6,5.3-13.3,6.2c-9.4,1.9-16.1-2.4-19.4-11.5c-2.9-8.1-4.4-16.4-3.8-25.2c-4.3,6.8-8.5,13.7-12.9,20.5
		c-6.5,10-12.7,20.3-19.9,29.8c-3.7,4.9-9.2,8.6-14.4,12.1c-4.1,2.7-8.5,1.1-11.7-3.1c-4.7-6.3-5.6-13.8-5.7-21.3
		c-0.3-11.9,2.4-23.4,5.2-34.9c1.8-7.2,3.6-14.4,5.3-21c-6.6-6.8-12.8-13.2-19.4-20.1c-2.8,3.6-6,7.4-8.7,11.5
		c-13.3,20.3-26.4,40.7-39.7,61c-3.4,5.3-6.5,11-10.6,15.6c-4.3,4.7-9.5,8.8-14.8,12.4c-4,2.7-8.5,1-11.7-3.3
		c-4.6-6.2-5.5-13.5-5.6-20.8c-0.3-12.1,2.3-23.8,5.2-35.4c1.8-7.2,3.6-14.4,5.2-20.9c-6.7-6.9-12.9-13.3-19.5-20.2
		c-3.6,3.9-7.7,7.9-11.5,12.3c-12.7,14.8-24,30.7-38.6,43.8c-6.4,5.8-12.9,11.5-19.7,16.8c-8.9,6.8-17.6,5.6-24.9-2.6
		c-4.9-5.5-7.7-11.8-8.4-19.2c-1.7-18.3,3.6-34.5,14.9-48.7c5.3-6.8,12.6-10.7,21-12.6c3.8-0.8,7.5-0.7,9.9,2.8
		c2.1,3.1,1,6.2-0.9,9.3c-4.9,8.1-11.9,13.6-20.5,17.3c-1.9,0.8-3.8,3.3-4.3,5.4c-2.5,10.1-3.2,20.4-1.9,30.7
		c0.6,4.6,1.4,9.2,2.6,13.6c1.5,5,3.7,5.9,8.1,3.1c5.3-3.3,10.6-6.9,15.3-11.1c14.9-13.6,27.8-29.1,40.5-44.8
		c4.7-5.8,9.8-11.3,15-16.7c2.1-2.1,2.4-3.9,1.6-6.6c-3.3-11.8-0.9-22.4,8-31.1c2.1-2,4.8-3.6,7.6-4.6c4.5-1.6,7.4,0.6,7.9,5.4
		c0.9,8.3-0.6,16.3-3.5,24c-1.4,3.7-1.5,6.8,0.3,10.4c3.8,7.3,8,14.2,15.8,17.9c4.7,2.2,3.6,6.6,3,10.1c-1.2,6.5-3.1,12.8-4.9,19.2
		c-4,14.8-7.2,29.7-7,45.1c0,2.2,0.5,4.4,0.8,6.6c0.4,0.2,0.9,0.4,1.3,0.6c2.5-1.8,5.4-3.2,7.3-5.4c3.6-4.1,7-8.5,9.9-13.1
		c11.1-17,21.8-34.1,32.9-51.1c6.1-9.3,12.5-18.4,19.1-27.4c1.7-2.3,2-4.1,1.2-6.8c-3.3-11.9-0.7-22.3,8.1-31.1
		c0.7-0.7,1.4-1.5,2.3-1.9c3.2-1.8,6.4-4.1,10.2-2.3c3.8,1.8,3.4,5.7,3,8.8c-0.8,6.9-1.8,13.8-3.7,20.4c-1.1,3.8-1.3,6.9,0.5,10.4
		c3.8,7.3,8,14.2,15.9,17.9c4.7,2.2,3.5,6.6,2.9,10.1c-1.3,6.6-3.4,13.1-5.1,19.7c-3.8,14.8-7.1,29.7-6.7,45.2c0,2,0.6,4,0.9,6
		C235,283,235.6,283.3,236.3,283.5z M27.8,201c9.9,1.3,22.4-12.3,20.1-21.8C39.3,175.4,28,191.2,27.8,201z M340.3,209
		c1.8-11.3,1.7-22.5-2.1-33.3c-0.6-1.6-2.3-2.9-3.6-4.3c-0.5,0.2-0.9,0.4-1.4,0.6C330.9,185.1,332.3,197.6,340.3,209z M125.7,147
		c-6,1.2-7.7,19.1-2.4,25.5C126.1,166,127.4,152.5,125.7,147z M226.3,146.8c-6.4,1.4-8.1,17.7-2.9,26.6
		C226,164.3,226.9,155.8,226.3,146.8z M417.3,146.6c-6.6,2.1-8.1,18.8-2.8,26.7C416.9,164.4,417.9,155.9,417.3,146.6z"/>
	<g>
	</g>
	<g>
		<g>
			<path fill="#00A79D" d="M109.1,155.7c-2,3.1-2.5,6.8-3,10.5c-0.2,1.3,0.3,2.7,1.7,3.1c1.2,0.3,2.9-0.4,3.1-1.7
				c0.5-3.2,0.7-6.5,2.5-9.3C115.2,155.5,110.8,153,109.1,155.7L109.1,155.7z"/>
		</g>
	</g>
	<g>
		<g>
			<path fill="#00A79D" d="M132.2,221.8c-1,7-1.6,14-1.9,21.1c2,0,4,0,6,0c0.1-6.2,0.3-12.5,0.4-18.7c0.1-3.9-5.9-3.9-6,0
				c-0.1,6.2-0.3,12.5-0.4,18.7c-0.1,3.9,5.8,3.8,6,0c0.3-6.5,0.9-13,1.7-19.5C138.5,219.6,132.7,218,132.2,221.8L132.2,221.8z"/>
		</g>
	</g>
	<g>
		<g>
			<path fill="#939598" d="M136.9,251.7h-3.7v-86.3H42.8h-2.7h-2L131.8,4.9h8.8v154h23.7v6.4h-23.7v86.3H136.9z M133.8,16.8
				L51.9,158.6l81.2,0.3L133.8,16.8z"/>
		</g>
		<g>
			<path fill="#939598" d="M281.5,197.2c0,0.7,0,2.5,0,5.4c0,2.9-0.5,6.5-1.4,10.7c-0.9,4.2-2.3,8.6-4.2,13.4
				c-1.9,4.7-4.8,9.1-8.6,13.2c-8.8,9.3-20.9,13.9-36.2,13.9c-15.1,0-27-4.6-35.5-13.9c-3.8-4.1-6.7-8.6-8.6-13.5
				c-1.9-5-3.2-9.6-3.9-14c-0.7-4.4-1-8.2-1-11.3c0-3.2,0-5.1,0-5.8V56.4c0-9,1.3-17.1,3.9-24.2c2.6-7.1,6.7-13.1,12.4-18.1
				c4.5-4.1,9.6-7.2,15.2-9.3c5.6-2.1,11.5-3.2,17.6-3.2c6.1,0,12,1,17.8,3c5.8,2,10.9,5,15.4,8.8c11.5,10.2,17.3,24.5,17.3,43
				V197.2z M274.4,56.4c0-8.8-1.3-16.2-3.9-22.3c-2.6-6.1-6-11-10.2-14.7c-4.2-3.7-8.9-6.4-14.1-8.1c-5.2-1.7-10.3-2.5-15.3-2.5
				c-5.2,0-10.4,1-15.5,2.9c-5.1,1.9-9.6,4.8-13.4,8.6c-3.8,3.8-7,8.8-9.3,14.9c-2.4,6.1-3.6,13.2-3.6,21.3v139.1
				c-0.2,5.6,0,10.5,0.7,14.6s1.8,8.3,3.4,12.9c1.6,4.5,4.1,8.6,7.5,12.2c7,7.7,17.1,11.5,30.2,11.5c13.4,0,23.8-3.9,31.3-11.8
				c3.4-3.6,5.9-7.6,7.5-11.8c1.6-4.3,2.7-8.3,3.4-12c0.7-3.7,1-8.2,1-13.4L274.4,56.4z"/>
		</g>
		<g>
			<path fill="#939598" d="M393.4,251.7h-3.7v-86.3h-90.4h-2.7h-2L388.4,4.9h8.8v154h23.7v6.4h-23.7v86.3H393.4z M390.4,16.8
				l-81.9,141.8l81.2,0.3L390.4,16.8z"/>
		</g>
	</g>
	<g>
		<g>
			<path fill="#00A79D" d="M111.9,154c-3.7,2.7-6.8,7.4-7,12c-0.1,2.8,4.3,3.4,4.9,0.7c0.3-1.4,0.5-5.8,2.2-6.3
				c3.1-0.9,1.8-5.8-1.3-4.8c-4.4,1.3-4.8,6-5.7,9.8c1.6,0.2,3.3,0.4,4.9,0.7c0.1-2.7,2.3-6.2,4.5-7.7
				C117,156.5,114.5,152.2,111.9,154L111.9,154z"/>
		</g>
	</g>
	<g>
		<g>
			<path fill="#00A79D" d="M112.6,156.1c-2.3,3.4-2.8,7.4-2.8,11.4c0,3.3,4.6,3.1,5,0c0.4-3.2,1.6-6,3.4-8.6c-1.5-0.6-3-1.3-4.6-1.9
				c-0.7,3.3-1.5,8.1,0.7,11c1.5,2,4.5,1.3,4.7-1.3c0.2-2.9,0.4-5.8,0.7-8.7c-1.6,0.2-3.3,0.4-4.9,0.7c0.6,3.5,0.8,7.1,0.6,10.7
				c-0.2,3.2,4.8,3.2,5,0c0.3-4,0-8-0.7-12c-0.5-2.9-4.7-2-4.9,0.7c-0.2,2.9-0.4,5.8-0.7,8.7c1.6-0.4,3.1-0.8,4.7-1.3
				c-1.3-1.8-0.6-5.2-0.2-7.2c0.6-2.8-2.9-4.3-4.6-1.9c-2.3,3.4-3.6,7-4.1,11.1c1.7,0,3.3,0,5,0c0-3.2,0.3-6.2,2.1-8.9
				C118.7,155.9,114.4,153.4,112.6,156.1L112.6,156.1z"/>
		</g>
	</g>
	<g>
		<g>
			<path fill="#00A79D" d="M120.4,162.8c0-1.5-0.1-2.9-0.4-4.3c-0.2-0.7-1.3-0.5-1.2,0.2c0.2,5.6,1.1,11.9,2.8,17.2
				c0.2,0.8,1.4,0.4,1.2-0.3c-1.7-5.3-2.5-11.4-2.7-16.9c-0.4,0.1-0.8,0.1-1.2,0.2c0.3,1.3,0.4,2.6,0.4,4
				C119.1,163.6,120.4,163.6,120.4,162.8L120.4,162.8z"/>
		</g>
	</g>
	<g>
		<g>
			<path fill="#00A79D" d="M126.3,196c2,3,4.3,5.4,7.2,7.5c1.2,0.9,2.9-0.8,2.1-2.1c-1.3-1.9-2.6-3.8-4-5.7
				c-0.8,0.6-1.6,1.2-2.4,1.8c1.7,1.5,3.3,3,5,4.5c1.4,1.3,3.5-0.8,2.1-2.1c-1.4-1.3-2.4-2.6-3.4-4.2c-0.8,0.6-1.6,1.2-2.4,1.8
				c1.4,1.2,2.9,2.4,4.3,3.5c1.5,1.2,3.6-0.9,2.1-2.1c-1.4-1.2-2.9-2.4-4-3.9c-0.8,0.6-1.6,1.2-2.4,1.8c2.1,2,4.2,3.8,6.8,5.3
				c1.2,0.7,2.5,1.3,3.6,2.3c1.7,1.6,1.7,3.7,1.6,5.9c-0.1,1.9,2.9,1.9,3,0c0.2-3.4-0.3-6.3-3.1-8.5c-3.1-2.5-6.6-4.1-9.6-7
				c-1.2-1.1-3.4,0.4-2.4,1.8c1.3,1.7,2.8,3.1,4.5,4.5c0.7-0.7,1.4-1.4,2.1-2.1c-1.4-1.2-2.9-2.4-4.3-3.5c-1.3-1-3.2,0.2-2.4,1.8
				c1,1.9,2.3,3.4,3.8,4.8c0.7-0.7,1.4-1.4,2.1-2.1c-1.7-1.5-3.3-3-5-4.5c-1.2-1.1-3.4,0.3-2.4,1.8c1.3,1.9,2.6,3.8,4,5.7
				c0.7-0.7,1.4-1.4,2.1-2.1c-2.5-1.8-4.5-3.8-6.1-6.4C127.8,192.8,125.2,194.4,126.3,196L126.3,196z"/>
		</g>
	</g>
	<g>
		<g>
			<path fill="#00A79D" d="M131.1,204.3c0,2.3,0.1,4.6,0.1,6.9c0.1,3.9,5.6,3.8,6,0c0.3-2.9,0.6-5.8,0.9-8.8
				c-1.7,0.7-3.4,1.4-5.1,2.1c3.3,3.2,3.2,4.8,1.1,8.9c-1.3,2.5-2.6,4.9-3.6,7.5c-2.2,5.6-3,11.5-2.8,17.4c0.1,3.3,5,4.1,5.9,0.8
				c1.3-5,2.2-10.2,2.4-15.4c0-0.7,0.3-8.3-0.2-8.5c0.3,0.1-1.4,6.3-1.5,6.6c-2.7,10.6-6.3,20.8-6.5,31.9c-0.1,3.9,5.6,3.8,6,0
				c0.5-5.9,1.9-11.6,3.5-17.3c1.5-5.5,2.8-11.3,5.1-16.5c-1.8-0.8-3.7-1.5-5.5-2.3c-2.9,13.3-4.7,27.5-9.4,40.3
				c-1.3,3.6,4.5,5.2,5.8,1.6c4.7-12.8,6.5-27,9.4-40.3c0.7-3.1-4.1-5.6-5.5-2.3c-4.8,11.3-8.2,24.6-9.4,36.8c2,0,4,0,6,0
				c0.2-8.9,2.7-17.3,5.1-25.8c1.2-4.3,5.7-14,1.6-17.7c-3.2-2.9-9.3-0.6-10.6,3.2c-1,3.1,0.1,7.1,0,10.3c-0.2,4.7-0.9,9.3-2.1,13.8
				c2,0.3,3.9,0.5,5.9,0.8c-0.2-8.9,2.6-15.5,6.4-23.3c1.1-2.3,2.8-5.4,2.4-8.1c-0.4-2.8-3.2-4.7-5.1-6.6c-2-1.9-4.9-0.4-5.1,2.1
				c-0.3,2.9-0.6,5.8-0.9,8.8c2,0,4,0,6,0c0-2.3-0.1-4.6-0.1-6.9C137.1,200.4,131.1,200.4,131.1,204.3L131.1,204.3z"/>
		</g>
	</g>
	<g>
		<g>
			<path fill="#00A79D" d="M221.8,243.2c-1.2,4.4-2,8.7-2.5,13.2c2,0,4,0,6,0c0.1-4,0.9-7.9,2.3-11.7c1-2.8-3.1-5.1-5-2.9
				c-3.1,3.5-2.9,7.5-3.8,11.8c-0.8,3.8,4.7,5.3,5.8,1.6c1.2-4.1,1.8-8.3,1.9-12.6c0-2.5-3.4-4.1-5.1-2.1c-2.4,2.7-3.6,5.8-3.9,9.4
				c-0.3,3.1-0.5,8,3.1,9.4c3.7,1.4,5.8-2.2,7-5c1.7-3.9,2.2-8.1,4.7-11.6c-1.9-0.5-3.7-1-5.6-1.5c-0.4,5-0.7,9.9-1.1,14.9
				c-0.3,3.4,5.1,4.1,5.9,0.8c1.1-4.6,2.3-9.2,4.1-13.7c-2-0.3-3.9-0.5-5.9-0.8c-0.5,4.2-1,8.4-1.6,12.6c2,0,4,0,6,0
				c0.1-3.2,0.8-6,2.3-8.9c-1.8-0.8-3.7-1.5-5.5-2.3c-0.9,3.1-1,6.2-2,9.3c1.9,0.5,3.9,1.1,5.8,1.6c0.8-5.3,1.4-10.6,1.7-15.9
				c0.2-3.9-5.8-3.8-6,0c-0.3,4.8-0.7,9.6-1.5,14.3c-0.6,3.8,4.5,5.3,5.8,1.6c1-3,1.1-6.2,2-9.3c0.9-3.2-3.9-5.4-5.5-2.3
				c-1.9,3.8-3,7.7-3.1,11.9c-0.1,4,5.5,3.7,6,0c0.5-4.2,1-8.4,1.6-12.6c0.5-3.6-4.7-3.6-5.9-0.8c-1.8,4.4-3,9-4.1,13.7
				c2,0.3,3.9,0.5,5.9,0.8c0.4-5,0.7-9.9,1.1-14.9c0.2-3.2-4-3.7-5.6-1.5c-1.5,2.1-2.5,4.5-3.3,7c-0.8,2.6-1.4,5.8-3.4,7.8
				c0.7-0.3,1.4-0.6,2.1-0.9c-0.3,0-0.6,0-0.9,0c0.7,0.3,1.4,0.6,2.1,0.9c-0.9-0.7-0.5-3.5-0.4-4.5c0.2-1.9,0.8-3.7,2.1-5.2
				c-1.7-0.7-3.4-1.4-5.1-2.1c0,3.8-0.6,7.4-1.6,11c1.9,0.5,3.9,1.1,5.8,1.6c0.6-2.9,0.2-6.8,2.2-9.2
				C225.1,245.1,223.4,244.1,221.8,243.2c-1.6,4.2-2.4,8.6-2.5,13.2c-0.1,4,5.5,3.7,6,0c0.5-3.9,1.3-7.8,2.3-11.6
				C228.5,241,222.8,239.4,221.8,243.2L221.8,243.2z"/>
		</g>
	</g>
	<g>
		<g>
			<path fill="#00A79D" d="M407.8,149.1c-13.6,7.2-20.6,33.7-2.7,40.2c3.6,1.3,5.2-4.5,1.6-5.8c-12.9-4.7-4.4-24.7,4.1-29.2
				C414.2,152.5,411.2,147.3,407.8,149.1L407.8,149.1z"/>
		</g>
	</g>
	<g>
		<g>
			<path fill="#00A79D" d="M402,156.5c-1.4,4.7-2.5,9.3-1.3,14.2c0.6,2.5,4.3,3,5.5,0.7c2.2-4,2.8-8.6,5-12.5
				c-1.9-0.5-3.7-1-5.6-1.5c-0.3,3.1-0.5,6.2-0.8,9.3c2,0,4,0,6,0c0.2-3.2,0.3-6.4,0.5-9.6c-2,0-4,0-6,0c0.1,3.5,0.2,7.1,0.3,10.6
				c0.1,3.9,5.6,3.8,6,0c0.4-4.1-0.6-8.3-1.2-12.4c-0.6-3.8-6.4-2.2-5.8,1.6c0.5,3.6,1.3,7.2,1,10.8c2,0,4,0,6,0
				c-0.1-3.5-0.2-7.1-0.3-10.6c-0.1-3.9-5.8-3.9-6,0c-0.2,3.2-0.3,6.4-0.5,9.6c-0.2,3.9,5.7,3.8,6,0c0.3-3.1,0.5-6.2,0.8-9.3
				c0.3-3-4.2-4-5.6-1.5c-2.2,4-2.8,8.6-5,12.5c1.8,0.2,3.7,0.5,5.5,0.7c-0.9-3.7,0.2-7.4,1.3-11C408.9,154.4,403.1,152.8,402,156.5
				L402,156.5z"/>
		</g>
	</g>
	<g>
		<g>
			<path fill="#00A79D" d="M402.3,153.1c-1.7,1.8-3.1,3.7-4.2,6c1.8,0.2,3.7,0.5,5.5,0.7c-0.1-0.2-0.1-0.4-0.2-0.6
				c-0.1,0.8-0.2,1.5-0.3,2.3c-0.1,0.2,2.1-1,2.5-1.3c2.9-2.3-0.8-6-3.6-4.7c-3.4,1.5-5,5.9-6.3,9.2c2,0.3,3.9,0.5,5.9,0.8
				c0.2-2,1.9-3.3,2.5-5.2c0.8-2.6-2.2-4.6-4.4-3.4c-4,2.1-5.3,8.6-5.1,12.8c0.3,5.4,4.4,7.5,9.4,7.5c3.9,0,3.9-6,0-6
				c-2.7,0-3.6-0.5-3.3-3.5c0.1-1.5,0.6-4.8,2.1-5.6c-1.5-1.1-2.9-2.3-4.4-3.4c-0.3,1-1.4,1.9-1.8,2.9c-0.6,1.3-0.7,2.5-0.9,3.9
				c-0.4,3.6,4.8,3.7,5.9,0.8c0.7-1.7,1.7-4.8,3.5-5.6c-1.2-1.6-2.4-3.1-3.6-4.7c-0.5,0.4-2.1,0.7-2.8,1.6c-1,1.2-1.1,2.4-0.7,3.9
				c0.6,2.4,4.4,3.1,5.5,0.7c0.8-1.8,1.8-3.3,3.2-4.8C409.2,154.6,405,150.3,402.3,153.1L402.3,153.1z"/>
		</g>
	</g>
	<rect x="416.7" y="158.9" fill="#939598" width="16.5" height="6.4"/>
	<g>
	</g>
</g>
<g>
</g>
<g>
</g>
<g>
</g>
<g>
</g>
<g>
</g>
<g>
</g>
</svg>
